ffmpeg started on 2016-12-09 at 03:04:04
Report written to "Output/x264/results/ffmpeg/sintelveryslow15000k.log"
Command line:
Tools/ffmpeg/ffmpeg -benchmark -y -i Input/y4m/sintel.y4m -c:v libx264 -preset veryslow -b:v 15000k -an Output/x264/encoded/sintelveryslow15000k.mkv
ffmpeg version N-82227-gdb23fde Copyright (c) 2000-2016 the FFmpeg developers
  built with gcc 5.4.0 (Ubuntu 5.4.0-6ubuntu1~16.04.2) 20160609
  configuration: --prefix=/home/jaroslav/ffmpeg_build --pkg-config-flags=--static --extra-cflags=-I/home/jaroslav/ffmpeg_build/include --extra-ldflags=-L/home/jaroslav/ffmpeg_build/lib --bindir=/home/jaroslav/bin --enable-gpl --enable-libass --enable-libfdk-aac --enable-libfreetype --enable-libmp3lame --enable-libopus --enable-libtheora --enable-libvorbis --enable-libvpx --enable-libx264 --enable-libx265 --enable-nvenc --enable-libmfx --enable-libxvid --enable-libgsm --enable-libopencore-amrnb --enable-version3 --enable-nonfree
  libavutil      55. 35.100 / 55. 35.100
  libavcodec     57. 66.101 / 57. 66.101
  libavformat    57. 57.100 / 57. 57.100
  libavdevice    57.  2.100 / 57.  2.100
  libavfilter     6. 66.100 /  6. 66.100
  libswscale      4.  3.100 /  4.  3.100
  libswresample   2.  4.100 /  2.  4.100
  libpostproc    54.  2.100 / 54.  2.100
Input #0, yuv4mpegpipe, from 'Input/y4m/sintel.y4m':
  Duration: 00:00:20.83, start: 0.000000, bitrate: 2057307 kb/s
    Stream #0:0: Video: rawvideo (I420 / 0x30323449), yuv420p(progressive), 4096x1744, SAR 1:1 DAR 256:109, 24 fps, 24 tbr, 24 tbn, 24 tbc
[libx264 @ 0x31021c0] using SAR=1/1
[libx264 @ 0x31021c0] DPB size (16 frames, 446464 mbs) > level limit (6 frames, 184320 mbs)
[libx264 @ 0x31021c0] using cpu capabilities: MMX2 SSE2Fast SSSE3 SSE4.2 AVX FMA3 AVX2 LZCNT BMI2
[libx264 @ 0x31021c0] profile High, level 5.2
[libx264 @ 0x31021c0] 264 - core 148 - H.264/MPEG-4 AVC codec - Copyleft 2003-2016 - http://www.videolan.org/x264.html - options: cabac=1 ref=16 deblock=1:0:0 analyse=0x3:0x133 me=umh subme=10 psy=1 psy_rd=1.00:0.00 mixed_ref=1 me_range=24 chroma_me=1 trellis=2 8x8dct=1 cqm=0 deadzone=21,11 fast_pskip=1 chroma_qp_offset=-2 threads=6 lookahead_threads=1 sliced_threads=0 nr=0 decimate=1 interlaced=0 bluray_compat=0 constrained_intra=0 bframes=8 b_pyramid=2 b_adapt=2 b_bias=0 direct=3 weightb=1 open_gop=0 weightp=2 keyint=250 keyint_min=24 scenecut=40 intra_refresh=0 rc_lookahead=60 rc=abr mbtree=1 bitrate=15000 ratetol=1.0 qcomp=0.60 qpmin=0 qpmax=69 qpstep=4 ip_ratio=1.40 aq=1:1.00
Output #0, matroska, to 'Output/x264/encoded/sintelveryslow15000k.mkv':
  Metadata:
    encoder         : Lavf57.57.100
    Stream #0:0: Video: h264 (libx264) (H264 / 0x34363248), yuv420p, 4096x1744 [SAR 1:1 DAR 256:109], q=-1--1, 15000 kb/s, 24 fps, 1k tbn, 24 tbc
    Metadata:
      encoder         : Lavc57.66.101 libx264
    Side data:
      cpb: bitrate max/min/avg: 0/0/15000000 buffer size: 0 vbv_delay: -1
Stream mapping:
  Stream #0:0 -> #0:0 (rawvideo (native) -> h264 (libx264))
Press [q] to stop, [?] for help
frame=    8 fps=0.0 q=0.0 size=       0kB time=00:00:00.00 bitrate=N/A speed=   0x    frame=   16 fps= 16 q=0.0 size=       0kB time=00:00:00.00 bitrate=N/A speed=   0x    frame=   24 fps= 16 q=0.0 size=       0kB time=00:00:00.00 bitrate=N/A speed=   0x    frame=   32 fps= 16 q=0.0 size=       0kB time=00:00:00.00 bitrate=N/A speed=   0x    frame=   40 fps= 16 q=0.0 size=       0kB time=00:00:00.00 bitrate=N/A speed=   0x    frame=   48 fps= 16 q=0.0 size=       0kB time=00:00:00.00 bitrate=N/A speed=   0x    frame=   57 fps= 16 q=0.0 size=       0kB time=00:00:00.00 bitrate=N/A speed=   0x    frame=   65 fps= 16 q=0.0 size=       0kB time=00:00:00.00 bitrate=N/A speed=   0x    frame=   70 fps= 12 q=0.0 size=       0kB time=00:00:00.00 bitrate=N/A speed=   0x    frame=   71 fps=9.1 q=0.0 size=       0kB time=00:00:00.00 bitrate=N/A speed=   0x    frame=   72 fps=3.3 q=0.0 size=       0kB time=00:00:00.00 bitrate=N/A speed=   0x    frame=   76 fps=3.2 q=21.0 size=       1kB time=-00:00:00.08 bitrate=N/A speed=N/A    frame=   78 fps=2.9 q=30.0 size=       1kB time=00:00:00.00 bitrate=5888.0kbits/s speed=3.78e-05x    frame=   79 fps=2.9 q=26.0 size=       1kB time=00:00:00.04 bitrate= 136.9kbits/s speed=0.00158x    frame=   80 fps=2.8 q=37.0 size=       1kB time=00:00:00.08 bitrate=  70.1kbits/s speed=0.00294x    frame=   81 fps=2.7 q=32.0 size=       1kB time=00:00:00.12 bitrate=  46.7kbits/s speed=0.00427x    frame=   82 fps=2.7 q=35.0 size=       1kB time=00:00:00.16 bitrate=  35.0kbits/s speed=0.00549x    frame=   83 fps=2.6 q=38.0 size=       1kB time=00:00:00.20 bitrate=  28.2kbits/s speed=0.00666x    frame=   85 fps=2.6 q=38.0 size=       1kB time=00:00:00.29 bitrate=  20.1kbits/s speed=0.00897x    frame=   87 fps=2.6 q=38.0 size=       1kB time=00:00:00.37 bitrate=  15.7kbits/s speed=0.0111x    frame=   90 fps=2.5 q=37.0 size=       1kB time=00:00:00.50 bitrate=  11.8kbits/s speed=0.0139x    frame=   91 fps=2.5 q=37.0 size=       1kB time=00:00:00.54 bitrate=  10.8kbits/s speed=0.0148x    frame=   92 fps=2.4 q=37.0 size=       1kB time=00:00:00.58 bitrate=  10.1kbits/s speed=0.0153x    frame=   93 fps=2.3 q=37.0 size=       1kB time=00:00:00.62 bitrate=   9.4kbits/s speed=0.0156x    frame=   94 fps=2.3 q=37.0 size=       1kB time=00:00:00.66 bitrate=   8.8kbits/s speed=0.0163x    frame=   96 fps=2.2 q=37.0 size=       1kB time=00:00:00.75 bitrate=   7.8kbits/s speed=0.0175x    frame=   97 fps=2.2 q=37.0 size=       1kB time=00:00:00.79 bitrate=   7.4kbits/s speed=0.0181x    frame=   98 fps=2.2 q=37.0 size=       1kB time=00:00:00.83 bitrate=   7.1kbits/s speed=0.0184x    frame=   99 fps=2.1 q=37.0 size=       1kB time=00:00:00.87 bitrate=   6.7kbits/s speed=0.0184x    frame=  100 fps=2.1 q=37.0 size=       1kB time=00:00:00.91 bitrate=   6.4kbits/s speed=0.0189x    frame=  101 fps=2.0 q=37.0 size=       1kB time=00:00:00.95 bitrate=   6.1kbits/s speed=0.0193x    frame=  102 fps=2.0 q=36.0 size=       1kB time=00:00:01.00 bitrate=   5.9kbits/s speed=0.0198x    frame=  105 fps=2.0 q=36.0 size=       1kB time=00:00:01.12 bitrate=   5.2kbits/s speed=0.0212x    frame=  106 fps=1.9 q=36.0 size=       1kB time=00:00:01.16 bitrate=   5.0kbits/s speed=0.021x    frame=  107 fps=1.9 q=36.0 size=       1kB time=00:00:01.20 bitrate=   4.9kbits/s speed=0.0215x    frame=  108 fps=1.9 q=36.0 size=       1kB time=00:00:01.25 bitrate=   4.7kbits/s speed=0.0219x    frame=  109 fps=1.9 q=36.0 size=       1kB time=00:00:01.29 bitrate=   4.6kbits/s speed=0.0222x    frame=  110 fps=1.9 q=35.0 size=       1kB time=00:00:01.33 bitrate=   4.4kbits/s speed=0.0225x    frame=  111 fps=1.8 q=35.0 size=       1kB time=00:00:01.37 bitrate=   4.3kbits/s speed=0.0229x    frame=  112 fps=1.8 q=35.0 size=       1kB time=00:00:01.41 bitrate=   4.2kbits/s speed=0.0229x    frame=  113 fps=1.8 q=35.0 size=       1kB time=00:00:01.45 bitrate=   4.0kbits/s speed=0.023x    frame=  114 fps=1.8 q=35.0 size=       1kB time=00:00:01.50 bitrate=   3.9kbits/s speed=0.0234x    frame=  115 fps=1.8 q=35.0 size=       1kB time=00:00:01.54 bitrate=   3.8kbits/s speed=0.0237x    frame=  116 fps=1.8 q=35.0 size=       1kB time=00:00:01.58 bitrate=   3.7kbits/s speed=0.024x    frame=  117 fps=1.7 q=35.0 size=       1kB time=00:00:01.62 bitrate=   3.6kbits/s speed=0.0242x    frame=  118 fps=1.7 q=35.0 size=       1kB time=00:00:01.66 bitrate=   3.5kbits/s speed=0.0246x    frame=  119 fps=1.7 q=35.0 size=       1kB time=00:00:01.70 bitrate=   3.4kbits/s speed=0.0247x    frame=  120 fps=1.7 q=34.0 size=       1kB time=00:00:01.75 bitrate=   3.4kbits/s speed=0.0249x    frame=  121 fps=1.7 q=34.0 size=       1kB time=00:00:01.79 bitrate=   3.3kbits/s speed=0.0251x    frame=  122 fps=1.7 q=34.0 size=       1kB time=00:00:01.83 bitrate=   3.2kbits/s speed=0.0254x    frame=  123 fps=1.7 q=34.0 size=       1kB time=00:00:01.87 bitrate=   3.1kbits/s speed=0.0257x    frame=  124 fps=1.7 q=34.0 size=       1kB time=00:00:01.91 bitrate=   3.1kbits/s speed=0.026x    frame=  125 fps=1.7 q=34.0 size=       1kB time=00:00:01.95 bitrate=   3.0kbits/s speed=0.026x    frame=  126 fps=1.6 q=34.0 size=       1kB time=00:00:02.00 bitrate=   2.9kbits/s speed=0.0261x    frame=  127 fps=1.6 q=34.0 size=       1kB time=00:00:02.04 bitrate=   2.9kbits/s speed=0.0262x    frame=  128 fps=1.6 q=34.0 size=    5122kB time=00:00:02.08 bitrate=20133.0kbits/s speed=0.0264x    frame=  129 fps=1.6 q=34.0 size=    5122kB time=00:00:02.12 bitrate=19735.3kbits/s speed=0.0263x    frame=  130 fps=1.6 q=34.0 size=    5122kB time=00:00:02.16 bitrate=19353.0kbits/s speed=0.0265x    frame=  131 fps=1.6 q=34.0 size=    5122kB time=00:00:02.20 bitrate=18993.8kbits/s speed=0.0266x    frame=  132 fps=1.6 q=34.0 size=    5122kB time=00:00:02.25 bitrate=18639.4kbits/s speed=0.0267x    frame=  133 fps=1.6 q=34.0 size=    5122kB time=00:00:02.29 bitrate=18298.0kbits/s speed=0.0267x    frame=  134 fps=1.5 q=34.0 size=    5122kB time=00:00:02.33 bitrate=17976.5kbits/s speed=0.0267x    frame=  135 fps=1.5 q=34.0 size=    5122kB time=00:00:02.37 bitrate=17658.8kbits/s speed=0.0266x    frame=  136 fps=1.5 q=34.0 size=    5122kB time=00:00:02.41 bitrate=17352.1kbits/s speed=0.0267x    frame=  137 fps=1.5 q=34.0 size=    5122kB time=00:00:02.45 bitrate=17062.7kbits/s speed=0.0269x    frame=  138 fps=1.5 q=34.0 size=    5122kB time=00:00:02.50 bitrate=16776.2kbits/s speed=0.0271x    frame=  139 fps=1.5 q=34.0 size=    5122kB time=00:00:02.54 bitrate=16499.1kbits/s speed=0.0273x    frame=  140 fps=1.5 q=34.0 size=    5122kB time=00:00:02.58 bitrate=16237.3kbits/s speed=0.0273x    frame=  141 fps=1.5 q=34.0 size=    5122kB time=00:00:02.62 bitrate=15977.6kbits/s speed=0.0273x    frame=  142 fps=1.4 q=33.0 size=    5122kB time=00:00:02.66 bitrate=15726.1kbits/s speed=0.0268x    frame=  143 fps=1.4 q=33.0 size=    5122kB time=00:00:02.70 bitrate=15488.1kbits/s speed=0.0271x    frame=  144 fps=1.4 q=33.0 size=    5122kB time=00:00:02.75 bitrate=15251.6kbits/s speed=0.0272x    frame=  145 fps=1.4 q=33.0 size=    5122kB time=00:00:02.79 bitrate=15022.3kbits/s speed=0.0274x    frame=  146 fps=1.4 q=33.0 size=    5122kB time=00:00:02.83 bitrate=14805.0kbits/s speed=0.0276x    frame=  147 fps=1.4 q=33.0 size=    5122kB time=00:00:02.87 bitrate=14588.8kbits/s speed=0.0278x    frame=  148 fps=1.4 q=33.0 size=    5122kB time=00:00:02.91 bitrate=14378.8kbits/s speed=0.0275x    frame=  149 fps=1.4 q=33.0 size=    5122kB time=00:00:02.95 bitrate=14179.5kbits/s speed=0.0275x    frame=  150 fps=1.4 q=33.0 size=    5122kB time=00:00:03.00 bitrate=13981.1kbits/s speed=0.0276x    frame=  151 fps=1.4 q=33.0 size=    5122kB time=00:00:03.04 bitrate=13788.1kbits/s speed=0.0276x    frame=  152 fps=1.4 q=33.0 size=    5122kB time=00:00:03.08 bitrate=13604.8kbits/s speed=0.0277x    frame=  153 fps=1.4 q=33.0 size=    5122kB time=00:00:03.12 bitrate=13422.0kbits/s speed=0.028x    frame=  154 fps=1.4 q=33.0 size=    5122kB time=00:00:03.16 bitrate=13244.1kbits/s speed=0.0278x    frame=  155 fps=1.3 q=33.0 size=    5122kB time=00:00:03.20 bitrate=13074.9kbits/s speed=0.0278x    frame=  156 fps=1.3 q=32.0 size=    5122kB time=00:00:03.25 bitrate=12906.0kbits/s speed=0.028x    frame=  157 fps=1.3 q=32.0 size=    5122kB time=00:00:03.29 bitrate=12741.3kbits/s speed=0.028x    frame=  158 fps=1.3 q=32.0 size=    5122kB time=00:00:03.33 bitrate=12584.7kbits/s speed=0.0281x    frame=  159 fps=1.3 q=32.0 size=    5122kB time=00:00:03.37 bitrate=12428.1kbits/s speed=0.0282x    frame=  160 fps=1.3 q=32.0 size=    5122kB time=00:00:03.41 bitrate=12275.4kbits/s speed=0.0283x    frame=  161 fps=1.3 q=32.0 size=    5122kB time=00:00:03.45 bitrate=12129.9kbits/s speed=0.0281x    frame=  162 fps=1.3 q=32.0 size=    5122kB time=00:00:03.50 bitrate=11984.4kbits/s speed=0.0283x    frame=  163 fps=1.3 q=32.0 size=    5122kB time=00:00:03.54 bitrate=11842.3kbits/s speed=0.0283x    frame=  164 fps=1.3 q=32.0 size=    5122kB time=00:00:03.58 bitrate=11706.8kbits/s speed=0.0283x    frame=  165 fps=1.3 q=32.0 size=    5122kB time=00:00:03.62 bitrate=11571.2kbits/s speed=0.0284x    frame=  166 fps=1.3 q=32.0 size=    5122kB time=00:00:03.66 bitrate=11438.7kbits/s speed=0.0285x    frame=  167 fps=1.3 q=32.0 size=    5122kB time=00:00:03.70 bitrate=11312.3kbits/s speed=0.0285x    frame=  168 fps=1.3 q=32.0 size=    5122kB time=00:00:03.75 bitrate=11185.6kbits/s speed=0.0286x    frame=  169 fps=1.3 q=32.0 size=    5122kB time=00:00:03.79 bitrate=11061.8kbits/s speed=0.0287x    frame=  170 fps=1.3 q=32.0 size=    5122kB time=00:00:03.83 bitrate=10943.5kbits/s speed=0.0289x    frame=  171 fps=1.3 q=32.0 size=    5122kB time=00:00:03.87 bitrate=10824.9kbits/s speed=0.0289x    frame=  172 fps=1.3 q=32.0 size=    5122kB time=00:00:03.91 bitrate=10708.8kbits/s speed=0.0286x    frame=  173 fps=1.3 q=32.0 size=    5122kB time=00:00:03.95 bitrate=10597.9kbits/s speed=0.0288x    frame=  175 fps=1.3 q=32.0 size=    5122kB time=00:00:04.04 bitrate=10377.8kbits/s speed=0.0292x    frame=  176 fps=1.3 q=32.0 size=    5122kB time=00:00:04.08 bitrate=10273.6kbits/s speed=0.0293x    frame=  177 fps=1.3 q=32.0 size=    5122kB time=00:00:04.12 bitrate=10169.0kbits/s speed=0.0294x    frame=  178 fps=1.2 q=32.0 size=    5122kB time=00:00:04.16 bitrate=10066.5kbits/s speed=0.0289x    frame=  179 fps=1.2 q=31.0 size=    5122kB time=00:00:04.20 bitrate=9968.5kbits/s speed=0.029x    frame=  181 fps=1.2 q=31.0 size=    5122kB time=00:00:04.29 bitrate=9773.4kbits/s speed=0.0295x    frame=  182 fps=1.2 q=31.0 size=    5122kB time=00:00:04.33 bitrate=9681.0kbits/s speed=0.0296x    frame=  184 fps=1.2 q=31.0 size=    5122kB time=00:00:04.41 bitrate=9496.9kbits/s speed=0.0296x    frame=  185 fps=1.2 q=31.0 size=    5122kB time=00:00:04.45 bitrate=9409.6kbits/s speed=0.0297x    frame=  186 fps=1.2 q=31.0 size=    5122kB time=00:00:04.50 bitrate=9321.8kbits/s speed=0.0298x    frame=  187 fps=1.2 q=31.0 size=    5122kB time=00:00:04.54 bitrate=9235.6kbits/s speed=0.0298x    frame=  188 fps=1.2 q=31.0 size=    5122kB time=00:00:04.58 bitrate=9153.0kbits/s speed=0.0297x    frame=  189 fps=1.2 q=31.0 size=    5122kB time=00:00:04.62 bitrate=9069.9kbits/s speed=0.0298x    frame=  191 fps=1.2 q=31.0 size=    5122kB time=00:00:04.70 bitrate=8910.0kbits/s speed=0.0302x    frame=  192 fps=1.2 q=31.0 size=    5122kB time=00:00:04.75 bitrate=8831.2kbits/s speed=0.0297x    frame=  193 fps=1.2 q=31.0 size=    5122kB time=00:00:04.79 bitrate=8753.9kbits/s speed=0.0298x    frame=  194 fps=1.2 q=31.0 size=    5122kB time=00:00:04.83 bitrate=8679.6kbits/s speed=0.0299x    frame=  195 fps=1.2 q=31.0 size=    5122kB time=00:00:04.87 bitrate=8604.9kbits/s speed=0.0301x    frame=  196 fps=1.2 q=31.0 size=    5122kB time=00:00:04.91 bitrate=8531.4kbits/s speed=0.03x    frame=  197 fps=1.2 q=31.0 size=    5122kB time=00:00:04.95 bitrate=8460.8kbits/s speed=0.0301x    frame=  198 fps=1.2 q=31.0 size=    5122kB time=00:00:05.00 bitrate=8389.8kbits/s speed=0.0302x    frame=  199 fps=1.2 q=31.0 size=    5122kB time=00:00:05.04 bitrate=8319.9kbits/s speed=0.0299x    frame=  200 fps=1.2 q=31.0 size=    5122kB time=00:00:05.08 bitrate=8252.8kbits/s speed=0.03x    frame=  201 fps=1.2 q=31.0 size=    5122kB time=00:00:05.12 bitrate=8185.2kbits/s speed=0.0301x    frame=  202 fps=1.2 q=31.0 size=    5122kB time=00:00:05.16 bitrate=8118.7kbits/s speed=0.0302x    frame=  203 fps=1.2 q=31.0 size=    5122kB time=00:00:05.20 bitrate=8054.8kbits/s speed=0.0303x    frame=  204 fps=1.2 q=31.0 size=    5122kB time=00:00:05.25 bitrate=7990.3kbits/s speed=0.0304x    frame=  205 fps=1.2 q=31.0 size=    5122kB time=00:00:05.29 bitrate=7926.9kbits/s speed=0.0303x    frame=  206 fps=1.2 q=31.0 size=    5122kB time=00:00:05.33 bitrate=7866.0kbits/s speed=0.0303x    frame=  207 fps=1.2 q=31.0 size=    5122kB time=00:00:05.37 bitrate=7804.6kbits/s speed=0.0304x    frame=  208 fps=1.2 q=31.0 size=    5122kB time=00:00:05.41 bitrate=7744.1kbits/s speed=0.0304x    frame=  209 fps=1.2 q=31.0 size=    5122kB time=00:00:05.45 bitrate=7685.9kbits/s speed=0.0305x    frame=  210 fps=1.2 q=31.0 size=    5122kB time=00:00:05.50 bitrate=7627.2kbits/s speed=0.0305x    frame=  211 fps=1.2 q=31.0 size=    5122kB time=00:00:05.54 bitrate=7569.4kbits/s speed=0.0305x    frame=  212 fps=1.2 q=31.0 size=    5122kB time=00:00:05.58 bitrate=7513.8kbits/s speed=0.0306x    frame=  213 fps=1.2 q=31.0 size=    5122kB time=00:00:05.62 bitrate=7457.7kbits/s speed=0.0307x    frame=  214 fps=1.2 q=31.0 size=    5122kB time=00:00:05.66 bitrate=7402.5kbits/s speed=0.0308x    frame=  215 fps=1.2 q=31.0 size=   10267kB time=00:00:05.70 bitrate=14733.0kbits/s speed=0.0309x    frame=  216 fps=1.2 q=31.0 size=   10267kB time=00:00:05.75 bitrate=14625.4kbits/s speed=0.0308x    frame=  217 fps=1.2 q=31.0 size=   10267kB time=00:00:05.79 bitrate=14519.4kbits/s speed=0.0309x    frame=  218 fps=1.2 q=31.0 size=   10267kB time=00:00:05.83 bitrate=14417.3kbits/s speed=0.031x    frame=  219 fps=1.2 q=31.0 size=   10267kB time=00:00:05.87 bitrate=14314.3kbits/s speed=0.031x    frame=  220 fps=1.2 q=31.0 size=   10267kB time=00:00:05.91 bitrate=14212.7kbits/s speed=0.0311x    frame=  221 fps=1.2 q=31.0 size=   10267kB time=00:00:05.95 bitrate=14114.9kbits/s speed=0.0312x    frame=  222 fps=1.2 q=31.0 size=   10267kB time=00:00:06.00 bitrate=14016.1kbits/s speed=0.0312x    frame=  223 fps=1.2 q=30.0 size=   10267kB time=00:00:06.04 bitrate=13918.7kbits/s speed=0.0312x    frame=  224 fps=1.2 q=30.0 size=   10267kB time=00:00:06.08 bitrate=13824.9kbits/s speed=0.0313x    frame=  225 fps=1.2 q=30.0 size=   10267kB time=00:00:06.12 bitrate=13730.1kbits/s speed=0.0313x    frame=  226 fps=1.1 q=30.0 size=   10267kB time=00:00:06.16 bitrate=13636.6kbits/s speed=0.0313x    frame=  227 fps=1.1 q=30.0 size=   10267kB time=00:00:06.20 bitrate=13546.6kbits/s speed=0.0312x    frame=  229 fps=1.1 q=30.0 size=   10267kB time=00:00:06.29 bitrate=13365.8kbits/s speed=0.0315x    frame=  230 fps=1.1 q=30.0 size=   10267kB time=00:00:06.33 bitrate=13279.2kbits/s speed=0.0316x    frame=  233 fps=1.1 q=30.0 size=   10267kB time=00:00:06.45 bitrate=13022.2kbits/s speed=0.0313x    frame=  234 fps=1.1 q=30.0 size=   10267kB time=00:00:06.50 bitrate=12938.1kbits/s speed=0.0314x    frame=  235 fps=1.1 q=30.0 size=   10267kB time=00:00:06.54 bitrate=12855.1kbits/s speed=0.0315x    frame=  236 fps=1.1 q=30.0 size=   10267kB time=00:00:06.58 bitrate=12775.0kbits/s speed=0.0316x    frame=  237 fps=1.1 q=30.0 size=   10267kB time=00:00:06.62 bitrate=12694.0kbits/s speed=0.0317x    frame=  238 fps=1.1 q=30.0 size=   10267kB time=00:00:06.66 bitrate=12614.1kbits/s speed=0.0317x    frame=  239 fps=1.1 q=30.0 size=   10267kB time=00:00:06.70 bitrate=12537.0kbits/s speed=0.0315x    frame=  240 fps=1.1 q=30.0 size=   10267kB time=00:00:06.75 bitrate=12459.0kbits/s speed=0.0316x    frame=  241 fps=1.1 q=30.0 size=   10267kB time=00:00:06.79 bitrate=12382.0kbits/s speed=0.0316x    frame=  242 fps=1.1 q=30.0 size=   10267kB time=00:00:06.83 bitrate=12307.7kbits/s speed=0.0316x    frame=  243 fps=1.1 q=30.0 size=   10267kB time=00:00:06.87 bitrate=12232.5kbits/s speed=0.0317x    frame=  244 fps=1.1 q=30.0 size=   10267kB time=00:00:06.91 bitrate=12158.2kbits/s speed=0.0318x    frame=  245 fps=1.1 q=30.0 size=   10267kB time=00:00:06.95 bitrate=12086.6kbits/s speed=0.0318x    frame=  246 fps=1.1 q=30.0 size=   10267kB time=00:00:07.00 bitrate=12014.1kbits/s speed=0.0317x    frame=  247 fps=1.1 q=30.0 size=   10267kB time=00:00:07.04 bitrate=11942.4kbits/s speed=0.0317x    frame=  248 fps=1.1 q=30.0 size=   10267kB time=00:00:07.08 bitrate=11873.3kbits/s speed=0.0318x    frame=  250 fps=1.1 q=30.0 size=   10267kB time=00:00:07.16 bitrate=11734.2kbits/s speed=0.032x    frame=  251 fps=1.1 q=30.0 size=   10267kB time=00:00:07.20 bitrate=11667.5kbits/s speed=0.032x    frame=  252 fps=1.1 q=30.0 size=   10267kB time=00:00:07.25 bitrate=11599.9kbits/s speed=0.0319x    frame=  253 fps=1.1 q=30.0 size=   10267kB time=00:00:07.29 bitrate=11533.1kbits/s speed=0.0319x    frame=  254 fps=1.1 q=30.0 size=   10267kB time=00:00:07.33 bitrate=11468.6kbits/s speed=0.032x    frame=  255 fps=1.1 q=30.0 size=   10267kB time=00:00:07.37 bitrate=11403.3kbits/s speed=0.032x    frame=  256 fps=1.1 q=30.0 size=   10267kB time=00:00:07.41 bitrate=11338.7kbits/s speed=0.0321x    frame=  257 fps=1.1 q=30.0 size=   10267kB time=00:00:07.45 bitrate=11276.4kbits/s speed=0.0322x    frame=  258 fps=1.1 q=30.0 size=   10267kB time=00:00:07.50 bitrate=11213.3kbits/s speed=0.0322x    frame=  259 fps=1.1 q=30.0 size=   10267kB time=00:00:07.54 bitrate=11150.8kbits/s speed=0.0322x    frame=  260 fps=1.1 q=30.0 size=   10267kB time=00:00:07.58 bitrate=11090.5kbits/s speed=0.0319x    frame=  261 fps=1.1 q=30.0 size=   10267kB time=00:00:07.62 bitrate=11029.5kbits/s speed=0.0319x    frame=  263 fps=1.1 q=30.0 size=   10267kB time=00:00:07.70 bitrate=10910.7kbits/s speed=0.0322x    frame=  265 fps=1.1 q=29.0 size=   10267kB time=00:00:07.79 bitrate=10793.1kbits/s speed=0.0325x    frame=  266 fps=1.1 q=29.0 size=   10267kB time=00:00:07.83 bitrate=10736.6kbits/s speed=0.0325x    frame=  267 fps=1.1 q=29.0 size=   10267kB time=00:00:07.87 bitrate=10679.4kbits/s speed=0.0321x    frame=  269 fps=1.1 q=29.0 size=   10267kB time=00:00:07.95 bitrate=10568.0kbits/s speed=0.0323x    frame=  271 fps=1.1 q=29.0 size=   10267kB time=00:00:08.04 bitrate=10457.6kbits/s speed=0.0326x    frame=  273 fps=1.1 q=29.0 size=   10267kB time=00:00:08.12 bitrate=10350.8kbits/s speed=0.0324x    frame=  274 fps=1.1 q=29.0 size=   10267kB time=00:00:08.16 bitrate=10297.6kbits/s speed=0.0324x    frame=  275 fps=1.1 q=29.0 size=   10267kB time=00:00:08.20 bitrate=10246.2kbits/s speed=0.0324x    frame=  276 fps=1.1 q=29.0 size=   10267kB time=00:00:08.25 bitrate=10194.0kbits/s speed=0.0324x    frame=  277 fps=1.1 q=29.0 size=   10267kB time=00:00:08.29 bitrate=10142.4kbits/s speed=0.0324x    frame=  278 fps=1.1 q=29.0 size=   10267kB time=00:00:08.33 bitrate=10092.5kbits/s speed=0.0324x    frame=  279 fps=1.1 q=29.0 size=   10267kB time=00:00:08.37 bitrate=10041.9kbits/s speed=0.0325x    frame=  280 fps=1.1 q=29.0 size=   10267kB time=00:00:08.41 bitrate=9991.8kbits/s speed=0.0326x    frame=  281 fps=1.1 q=29.0 size=   10267kB time=00:00:08.45 bitrate=9943.3kbits/s speed=0.0325x    frame=  282 fps=1.1 q=29.0 size=   10267kB time=00:00:08.50 bitrate=9894.2kbits/s speed=0.0326x    frame=  284 fps=1.1 q=29.0 size=   10267kB time=00:00:08.58 bitrate=9798.5kbits/s speed=0.0324x    frame=  285 fps=1.1 q=29.0 size=   10267kB time=00:00:08.62 bitrate=9750.8kbits/s speed=0.0325x    frame=  287 fps=1.1 q=29.0 size=   10267kB time=00:00:08.70 bitrate=9657.9kbits/s speed=0.0328x    frame=  288 fps=1.1 q=29.0 size=   10267kB time=00:00:08.75 bitrate=9611.5kbits/s speed=0.0328x    frame=  289 fps=1.1 q=29.0 size=   10267kB time=00:00:08.79 bitrate=9565.6kbits/s speed=0.0328x    frame=  291 fps=1.1 q=29.0 size=   10267kB time=00:00:08.87 bitrate=9476.2kbits/s speed=0.0329x    frame=  292 fps=1.1 q=29.0 size=   10267kB time=00:00:08.91 bitrate=9431.6kbits/s speed=0.0327x    frame=  294 fps=1.1 q=29.0 size=   15424kB time=00:00:09.00 bitrate=14037.6kbits/s speed=0.0329x    frame=  295 fps=1.1 q=29.0 size=   15424kB time=00:00:09.04 bitrate=13972.4kbits/s speed=0.0329x    frame=  297 fps=1.1 q=29.0 size=   15424kB time=00:00:09.12 bitrate=13845.3kbits/s speed=0.0331x    frame=  298 fps=1.1 q=29.0 size=   15424kB time=00:00:09.16 bitrate=13781.9kbits/s speed=0.0327x    frame=  299 fps=1.1 q=29.0 size=   15424kB time=00:00:09.20 bitrate=13720.5kbits/s speed=0.0328x    frame=  302 fps=1.1 q=29.0 size=   15424kB time=00:00:09.33 bitrate=13536.8kbits/s speed=0.0331x    frame=  303 fps=1.1 q=29.0 size=   15424kB time=00:00:09.37 bitrate=13476.2kbits/s speed=0.0332x    frame=  304 fps=1.1 q=29.0 size=   15424kB time=00:00:09.41 bitrate=13416.1kbits/s speed=0.033x    frame=  306 fps=1.1 q=29.0 size=   15424kB time=00:00:09.50 bitrate=13298.9kbits/s speed=0.0332x    frame=  309 fps=1.1 q=29.0 size=   15424kB time=00:00:09.62 bitrate=13126.2kbits/s speed=0.0331x    frame=  310 fps=1.1 q=29.0 size=   15424kB time=00:00:09.66 bitrate=13069.1kbits/s speed=0.0332x    frame=  312 fps=1.1 q=29.0 size=   15424kB time=00:00:09.75 bitrate=12957.9kbits/s speed=0.0333x    frame=  313 fps=1.1 q=29.0 size=   15424kB time=00:00:09.79 bitrate=12902.3kbits/s speed=0.0333x    frame=  314 fps=1.1 q=29.0 size=   15424kB time=00:00:09.83 bitrate=12848.5kbits/s speed=0.0334x    frame=  316 fps=1.1 q=29.0 size=   15424kB time=00:00:09.91 bitrate=12739.7kbits/s speed=0.0335x    frame=  317 fps=1.1 q=29.0 size=   15424kB time=00:00:09.95 bitrate=12687.3kbits/s speed=0.0335x    frame=  318 fps=1.1 q=29.0 size=   15424kB time=00:00:10.00 bitrate=12634.0kbits/s speed=0.0336x    frame=  320 fps=1.1 q=29.0 size=   15424kB time=00:00:10.08 bitrate=12530.0kbits/s speed=0.0337x    frame=  321 fps=1.1 q=26.0 size=   15424kB time=00:00:10.12 bitrate=12478.0kbits/s speed=0.0336x    frame=  322 fps=1.1 q=29.0 size=   15424kB time=00:00:10.16 bitrate=12426.5kbits/s speed=0.0337x    frame=  324 fps=1.1 q=29.0 size=   15424kB time=00:00:10.25 bitrate=12325.9kbits/s speed=0.0337x    frame=  326 fps=1.1 q=29.0 size=   17426kB time=00:00:10.33 bitrate=13814.1kbits/s speed=0.0339x    frame=  332 fps=1.1 q=29.0 size=   17426kB time=00:00:10.58 bitrate=13487.8kbits/s speed=0.0345x    frame=  336 fps=1.1 q=26.0 size=   17426kB time=00:00:10.75 bitrate=13278.3kbits/s speed=0.0349x    frame=  339 fps=1.1 q=29.0 size=   17426kB time=00:00:10.87 bitrate=13125.7kbits/s speed=0.0352x    frame=  342 fps=1.1 q=28.0 size=   17426kB time=00:00:11.00 bitrate=12976.6kbits/s speed=0.0355x    frame=  343 fps=1.1 q=28.0 size=   17426kB time=00:00:11.04 bitrate=12927.2kbits/s speed=0.0355x    frame=  345 fps=1.1 q=28.0 size=   17426kB time=00:00:11.12 bitrate=12830.8kbits/s speed=0.0356x    frame=  346 fps=1.1 q=28.0 size=   17426kB time=00:00:11.16 bitrate=12782.5kbits/s speed=0.0355x    frame=  348 fps=1.1 q=28.0 size=   17426kB time=00:00:11.25 bitrate=12688.2kbits/s speed=0.0357x    frame=  349 fps=1.1 q=28.0 size=   17426kB time=00:00:11.29 bitrate=12641.0kbits/s speed=0.0357x    frame=  350 fps=1.1 q=28.0 size=   17426kB time=00:00:11.33 bitrate=12595.3kbits/s speed=0.0357x    frame=  351 fps=1.1 q=28.0 size=   17426kB time=00:00:11.37 bitrate=12548.8kbits/s speed=0.0358x    frame=  353 fps=1.1 q=28.0 size=   17426kB time=00:00:11.45 bitrate=12457.9kbits/s speed=0.0357x    frame=  355 fps=1.1 q=28.0 size=   17426kB time=00:00:11.54 bitrate=12367.3kbits/s speed=0.0358x    frame=  357 fps=1.1 q=28.0 size=   17426kB time=00:00:11.62 bitrate=12279.0kbits/s speed=0.0359x    frame=  359 fps=1.1 q=28.0 size=   17426kB time=00:00:11.70 bitrate=12191.9kbits/s speed=0.036x    frame=  360 fps=1.1 q=28.0 size=   17426kB time=00:00:11.75 bitrate=12148.3kbits/s speed=0.0358x    frame=  362 fps=1.1 q=28.0 size=   17426kB time=00:00:11.83 bitrate=12063.1kbits/s speed=0.036x    frame=  364 fps=1.1 q=28.0 size=   17426kB time=00:00:11.91 bitrate=11978.1kbits/s speed=0.0361x    frame=  366 fps=1.1 q=28.0 size=   17426kB time=00:00:12.00 bitrate=11895.3kbits/s speed=0.0362x    frame=  367 fps=1.1 q=28.0 size=   17426kB time=00:00:12.04 bitrate=11853.8kbits/s speed=0.0363x    frame=  368 fps=1.1 q=28.0 size=   17426kB time=00:00:12.08 bitrate=11813.6kbits/s speed=0.0361x    frame=  370 fps=1.1 q=28.0 size=   17426kB time=00:00:12.16 bitrate=11732.0kbits/s speed=0.0363x    frame=  373 fps=1.1 q=28.0 size=   17426kB time=00:00:12.29 bitrate=11612.7kbits/s speed=0.0366x    frame=  374 fps=1.1 q=28.0 size=   17426kB time=00:00:12.33 bitrate=11574.1kbits/s speed=0.0366x    frame=  376 fps=1.1 q=27.0 size=   17426kB time=00:00:12.41 bitrate=11495.8kbits/s speed=0.0365x    frame=  378 fps=1.1 q=28.0 size=   17426kB time=00:00:12.50 bitrate=11419.5kbits/s speed=0.0367x    frame=  382 fps=1.1 q=27.0 size=   17426kB time=00:00:12.66 bitrate=11269.0kbits/s speed=0.0368x    frame=  385 fps=1.1 q=27.0 size=   17426kB time=00:00:12.79 bitrate=11158.9kbits/s speed=0.0371x    frame=  388 fps=1.1 q=27.0 size=   17426kB time=00:00:12.91 bitrate=11050.9kbits/s speed=0.037x    frame=  390 fps=1.1 q=27.0 size=   17426kB time=00:00:13.00 bitrate=10980.3kbits/s speed=0.0372x    frame=  393 fps=1.1 q=27.0 size=   17426kB time=00:00:13.12 bitrate=10875.8kbits/s speed=0.0375x    frame=  394 fps=1.1 q=27.0 size=   17426kB time=00:00:13.16 bitrate=10841.1kbits/s speed=0.0373x    frame=  399 fps=1.1 q=27.0 size=   17426kB time=00:00:13.37 bitrate=10672.5kbits/s speed=0.0376x    frame=  400 fps=1.1 q=27.0 size=   17426kB time=00:00:13.41 bitrate=10639.1kbits/s speed=0.0376x    frame=  404 fps=1.1 q=27.0 size=   17426kB time=00:00:13.58 bitrate=10509.1kbits/s speed=0.0379x    frame=  406 fps=1.1 q=26.0 size=   17426kB time=00:00:13.66 bitrate=10444.5kbits/s speed=0.038x    frame=  408 fps=1.1 q=26.0 size=   17426kB time=00:00:13.75 bitrate=10381.4kbits/s speed=0.038x    frame=  410 fps=1.1 q=26.0 size=   17426kB time=00:00:13.83 bitrate=10319.2kbits/s speed=0.0381x    frame=  413 fps=1.1 q=26.0 size=   17426kB time=00:00:13.95 bitrate=10226.8kbits/s speed=0.0382x    frame=  414 fps=1.1 q=26.0 size=   17426kB time=00:00:14.00 bitrate=10196.1kbits/s speed=0.0382x    frame=  419 fps=1.1 q=26.0 size=   17426kB time=00:00:14.20 bitrate=10046.8kbits/s speed=0.0384x    frame=  425 fps=1.1 q=26.0 size=   22631kB time=00:00:14.45 bitrate=12822.0kbits/s speed=0.0387x    frame=  426 fps=1.1 q=26.0 size=   22631kB time=00:00:14.50 bitrate=12784.8kbits/s speed=0.0387x    frame=  430 fps=1.1 q=25.0 size=   22631kB time=00:00:14.66 bitrate=12639.3kbits/s speed=0.0391x    frame=  431 fps=1.1 q=25.0 size=   22631kB time=00:00:14.70 bitrate=12604.1kbits/s speed=0.0389x    frame=  432 fps=1.1 q=25.0 size=   22631kB time=00:00:14.75 bitrate=12568.2kbits/s speed=0.039x    frame=  437 fps=1.1 q=25.0 size=   22631kB time=00:00:14.95 bitrate=12393.4kbits/s speed=0.0393x    frame=  439 fps=1.1 q=25.0 size=   22631kB time=00:00:15.04 bitrate=12324.2kbits/s speed=0.039x    frame=  441 fps=1.1 q=25.0 size=   22631kB time=00:00:15.12 bitrate=12256.6kbits/s speed=0.0391x    frame=  442 fps=1.1 q=25.0 size=   22631kB time=00:00:15.16 bitrate=12222.6kbits/s speed=0.0392x    frame=  444 fps=1.1 q=25.0 size=   22631kB time=00:00:15.25 bitrate=12156.1kbits/s speed=0.0393x    frame=  445 fps=1.1 q=25.0 size=   22631kB time=00:00:15.29 bitrate=12122.7kbits/s speed=0.0392x    frame=  446 fps=1.1 q=25.0 size=   22631kB time=00:00:15.33 bitrate=12090.3kbits/s speed=0.0391x    frame=  448 fps=1.1 q=25.0 size=   22631kB time=00:00:15.41 bitrate=12024.5kbits/s speed=0.0392x    frame=  449 fps=1.1 q=25.0 size=   22631kB time=00:00:15.45 bitrate=11992.6kbits/s speed=0.0392x    frame=  451 fps=1.1 q=25.0 size=   22631kB time=00:00:15.54 bitrate=11927.8kbits/s speed=0.0393x    frame=  452 fps=1.1 q=25.0 size=   22631kB time=00:00:15.58 bitrate=11896.4kbits/s speed=0.0391x    frame=  453 fps=1.1 q=25.0 size=   22631kB time=00:00:15.62 bitrate=11864.4kbits/s speed=0.0391x    frame=  454 fps=1.1 q=25.0 size=   22631kB time=00:00:15.66 bitrate=11832.6kbits/s speed=0.0391x    frame=  455 fps=1.1 q=25.0 size=   22631kB time=00:00:15.70 bitrate=11801.7kbits/s speed=0.0392x    frame=  457 fps=1.1 q=25.0 size=   22631kB time=00:00:15.79 bitrate=11738.9kbits/s speed=0.0393x    frame=  458 fps=1.1 q=25.0 size=   22631kB time=00:00:15.83 bitrate=11708.5kbits/s speed=0.0393x    frame=  459 fps=1.1 q=25.0 size=   22631kB time=00:00:15.87 bitrate=11677.6kbits/s speed=0.0391x    frame=  461 fps=1.1 q=25.0 size=   22631kB time=00:00:15.95 bitrate=11616.8kbits/s speed=0.0392x    frame=  464 fps=1.1 q=25.0 size=   22631kB time=00:00:16.08 bitrate=11526.6kbits/s speed=0.0393x    frame=  465 fps=1.1 q=25.0 size=   22631kB time=00:00:16.12 bitrate=11496.5kbits/s speed=0.0392x    frame=  466 fps=1.1 q=25.0 size=   22631kB time=00:00:16.16 bitrate=11466.7kbits/s speed=0.0393x    frame=  468 fps=1.1 q=25.0 size=   22631kB time=00:00:16.25 bitrate=11408.1kbits/s speed=0.0392x    frame=  469 fps=1.1 q=25.0 size=   22631kB time=00:00:16.29 bitrate=11378.7kbits/s speed=0.0392x    frame=  471 fps=1.1 q=25.0 size=   22631kB time=00:00:16.37 bitrate=11321.0kbits/s speed=0.0391x    frame=  472 fps=1.1 q=25.0 size=   22631kB time=00:00:16.41 bitrate=11292.1kbits/s speed=0.0391x    frame=  474 fps=1.1 q=25.0 size=   22631kB time=00:00:16.50 bitrate=11235.3kbits/s speed=0.0392x    frame=  475 fps=1.1 q=25.0 size=   22631kB time=00:00:16.54 bitrate=11206.7kbits/s speed=0.0393x    frame=  476 fps=1.1 q=25.0 size=   22631kB time=00:00:16.58 bitrate=11179.0kbits/s speed=0.0391x    frame=  477 fps=1.1 q=25.0 size=   22631kB time=00:00:16.62 bitrate=11150.8kbits/s speed=0.0391x    frame=  480 fps=1.1 q=25.0 size=   22631kB time=00:00:16.75 bitrate=11067.6kbits/s speed=0.0393x    frame=  481 fps=1.1 q=25.0 size=   22631kB time=00:00:16.79 bitrate=11039.9kbits/s speed=0.0393x    frame=  482 fps=1.1 q=25.0 size=   22631kB time=00:00:16.83 bitrate=11013.0kbits/s speed=0.0391x    frame=  484 fps=1.1 q=25.0 size=   22631kB time=00:00:16.91 bitrate=10958.3kbits/s speed=0.0392x    frame=  486 fps=1.1 q=25.0 size=   22631kB time=00:00:17.00 bitrate=10904.8kbits/s speed=0.0393x    frame=  488 fps=1.1 q=25.0 size=   22631kB time=00:00:17.08 bitrate=10851.9kbits/s speed=0.0393x    frame=  489 fps=1.1 q=25.0 size=   22631kB time=00:00:17.12 bitrate=10825.2kbits/s speed=0.0392x    frame=  490 fps=1.1 q=25.0 size=   22631kB time=00:00:17.16 bitrate=10798.8kbits/s speed=0.0392x    frame=  492 fps=1.1 q=25.0 size=   22631kB time=00:00:17.25 bitrate=10746.8kbits/s speed=0.0394x    frame=  494 fps=1.1 q=25.0 size=   22631kB time=00:00:17.33 bitrate=10695.3kbits/s speed=0.0391x    frame=  496 fps=1.1 q=25.0 size=   27783kB time=00:00:17.41 bitrate=13066.8kbits/s speed=0.0392x    frame=  497 fps=1.1 q=25.0 size=   27783kB time=00:00:17.45 bitrate=13036.1kbits/s speed=0.0392x    frame=  499 fps=1.1 q=25.0 size=   27783kB time=00:00:17.54 bitrate=12973.7kbits/s speed=0.0393x    frame=  500 fps=1.1 q=25.0 size=   27783kB time=00:00:17.58 bitrate=12943.5kbits/s speed=0.0392x    frame=  500 fps=1.0 q=-1.0 Lsize=   34044kB time=00:00:20.70 bitrate=13467.0kbits/s speed=0.0408x    
video:34039kB audio:0kB subtitle:0kB other streams:0kB global headers:0kB muxing overhead: 0.014198%
bench: utime=1928.976s
bench: maxrss=2803772kB
[libx264 @ 0x31021c0] frame I:3     Avg QP:19.35  size:346792
[libx264 @ 0x31021c0] frame P:268   Avg QP:26.87  size: 87055
[libx264 @ 0x31021c0] frame B:229   Avg QP:26.46  size: 45782
[libx264 @ 0x31021c0] consecutive B-frames: 36.2%  7.6% 18.0% 17.6% 11.0%  9.6%  0.0%  0.0%  0.0%
[libx264 @ 0x31021c0] mb I  I16..4: 10.5% 78.8% 10.7%
[libx264 @ 0x31021c0] mb P  I16..4: 18.2% 23.3%  0.7%  P16..4: 34.0%  4.3%  2.8%  0.0%  0.0%    skip:16.7%
[libx264 @ 0x31021c0] mb B  I16..4:  1.1%  2.6%  0.2%  B16..8: 35.2%  4.9%  0.9%  direct: 2.4%  skip:52.6%  L0:44.5% L1:50.2% BI: 5.3%
[libx264 @ 0x31021c0] final ratefactor: 22.44
[libx264 @ 0x31021c0] 8x8 transform intra:56.7% inter:85.1%
[libx264 @ 0x31021c0] direct mvs  spatial:99.1% temporal:0.9%
[libx264 @ 0x31021c0] coded y,uvDC,uvAC intra: 22.7% 25.9% 3.1% inter: 9.7% 8.1% 0.3%
[libx264 @ 0x31021c0] i16 v,h,dc,p: 19% 23% 10% 47%
[libx264 @ 0x31021c0] i8 v,h,dc,ddl,ddr,vr,hd,vl,hu: 14% 13% 17%  7% 10%  9% 11%  8% 11%
[libx264 @ 0x31021c0] i4 v,h,dc,ddl,ddr,vr,hd,vl,hu: 14% 15%  8%  7% 13% 11% 14%  7% 11%
[libx264 @ 0x31021c0] i8c dc,h,v,p: 50% 28% 15%  7%
[libx264 @ 0x31021c0] Weighted P-Frames: Y:1.5% UV:1.1%
[libx264 @ 0x31021c0] ref P L0: 64.2% 16.7%  8.4%  3.0%  1.7%  1.3%  1.1%  0.7%  0.6%  0.5%  0.4%  0.4%  0.3%  0.3%  0.2%  0.2%
[libx264 @ 0x31021c0] ref B L0: 86.3%  6.7%  2.7%  1.1%  0.8%  0.6%  0.4%  0.3%  0.3%  0.2%  0.2%  0.1%  0.1%  0.1%  0.1%
[libx264 @ 0x31021c0] ref B L1: 97.9%  2.1%
[libx264 @ 0x31021c0] kb/s:13384.43
